# Blender v2.93.5 OBJ File: 'tree.blend'
# www.blender.org
mtllib tree.mtl
o Cylinder
v 0.000000 0.002523 -0.239812
v -0.065727 1.956426 -0.204131
v 0.187493 0.002523 -0.149520
v 0.093869 1.956426 -0.127273
v 0.233799 0.002523 0.053363
v 0.133286 1.956426 0.045423
v 0.104051 0.002523 0.216063
v 0.022842 1.956426 0.183915
v -0.104051 0.002523 0.216063
v -0.154295 1.956426 0.183915
v -0.233799 0.002523 0.053363
v -0.264739 1.956426 0.045423
v -0.187493 0.002523 -0.149520
v -0.225322 1.956426 -0.127273
v -0.065727 2.880143 -0.166964
v 0.064812 2.880143 -0.104101
v 0.088513 2.880143 0.040124
v 0.002916 2.880143 0.147459
v -0.134369 2.880143 0.147459
v -0.219966 2.880143 0.040124
v -0.196265 2.880143 -0.104101
v -0.043929 4.464131 -0.112523
v 0.032710 4.464131 -0.075616
v 0.051638 4.464131 0.007314
v 0.016057 4.464130 0.124564
v -0.103916 4.464130 0.124564
v -0.139497 4.464131 0.007314
v -0.120568 4.464131 -0.075616
v -0.025495 6.628453 -0.112495
v 0.033230 6.628453 -0.084214
v 0.047734 6.628453 -0.020668
v 0.007095 6.628453 0.030291
v -0.058085 6.628453 0.030291
v -0.098724 6.628453 -0.020668
v -0.084220 6.628453 -0.084214
v -0.113868 8.019217 -0.037382
vt 1.000000 0.500000
vt 1.000000 1.000000
vt 0.857143 1.000000
vt 0.857143 0.500000
vt 0.714286 1.000000
vt 0.714286 0.500000
vt 0.571429 1.000000
vt 0.571429 0.500000
vt 0.428571 1.000000
vt 0.428571 0.500000
vt 0.285714 1.000000
vt 0.285714 0.500000
vt 0.714286 1.000000
vt 0.571429 1.000000
vt 0.142857 1.000000
vt 0.142857 0.500000
vt 0.000000 1.000000
vt 0.000000 0.500000
vt 0.750000 0.490000
vt 0.937640 0.399638
vt 0.983983 0.196595
vt 0.854132 0.033767
vt 0.645868 0.033767
vt 0.516017 0.196595
vt 0.562360 0.399638
vt 0.857143 1.000000
vt 1.000000 1.000000
vt 1.000000 1.000000
vt 0.857143 1.000000
vt 0.285714 1.000000
vt 0.142857 1.000000
vt 0.428571 1.000000
vt 0.000000 1.000000
vt 0.571429 1.000000
vt 0.714286 1.000000
vt 0.714286 1.000000
vt 0.571429 1.000000
vt 0.285714 1.000000
vt 0.142857 1.000000
vt 0.428571 1.000000
vt 0.000000 1.000000
vt 0.857143 1.000000
vt 0.714286 1.000000
vt 1.000000 1.000000
vt 0.285714 1.000000
vt 0.142857 1.000000
vt 0.428571 1.000000
vt 0.000000 1.000000
vt 0.000000 1.000000
vt 0.285714 1.000000
vt 0.571429 1.000000
vt 0.857143 1.000000
vt 0.142857 1.000000
vt 0.428571 1.000000
vn 0.4337 0.0310 -0.9005
vn 0.9737 0.0492 -0.2223
vn 0.7811 0.0427 0.6229
vn 0.0000 0.0165 0.9999
vn -0.7818 -0.0098 0.6235
vn 0.7812 0.0414 0.6230
vn -0.9748 -0.0163 -0.2225
vn -0.4339 0.0019 -0.9010
vn 0.0000 -1.0000 0.0000
vn 0.4337 0.0250 -0.9007
vn -0.9799 0.0410 -0.1952
vn 0.0000 0.0394 0.9992
vn -0.4336 0.0362 -0.9004
vn 0.9799 0.0410 -0.1952
vn -0.7812 0.0414 0.6230
vn 0.4336 0.0362 -0.9004
vn 0.9108 0.0144 0.4127
vn -0.9817 0.0481 -0.1842
vn 0.0000 0.0145 0.9999
vn 0.9826 0.0211 -0.1844
vn -0.4336 0.0369 -0.9004
vn -0.8794 0.0391 0.4745
vn 0.8800 0.0149 0.4748
vn 0.9690 0.1099 -0.2212
vn 0.4339 -0.0037 -0.9010
vn -0.9748 0.0155 -0.2225
vn 0.0000 0.0435 0.9991
vn 0.9749 -0.0011 -0.2225
vn -0.4339 0.0037 -0.9010
vn -0.9104 0.0299 0.4125
vn -0.4338 0.0211 -0.9008
vn -0.7818 -0.0010 0.6235
vn 0.7781 0.0979 0.6205
vn 0.4326 0.0760 -0.8984
vn -0.9748 -0.0133 -0.2225
vn 0.0000 0.0486 0.9988
usemtl Material.001
s off
f 1/1/1 2/2/1 4/3/1 3/4/1
f 3/4/2 4/3/2 6/5/2 5/6/2
f 5/6/3 6/5/3 8/7/3 7/8/3
f 7/8/4 8/7/4 10/9/4 9/10/4
f 9/10/5 10/9/5 12/11/5 11/12/5
f 8/7/6 6/5/6 17/13/6 18/14/6
f 11/12/7 12/11/7 14/15/7 13/16/7
f 13/16/8 14/15/8 2/17/8 1/18/8
f 1/19/9 3/20/9 5/21/9 7/22/9 9/23/9 11/24/9 13/25/9
f 16/26/10 15/27/10 22/28/10 23/29/10
f 14/15/11 12/11/11 20/30/11 21/31/11
f 10/9/12 8/7/12 18/14/12 19/32/12
f 2/17/13 14/15/13 21/31/13 15/33/13
f 6/5/14 4/3/14 16/26/14 17/13/14
f 12/11/15 10/9/15 19/32/15 20/30/15
f 4/3/16 2/2/16 15/27/16 16/26/16
f 25/34/17 24/35/17 31/36/17 32/37/17
f 21/31/18 20/30/18 27/38/18 28/39/18
f 19/32/19 18/14/19 25/34/19 26/40/19
f 17/13/20 16/26/20 23/29/20 24/35/20
f 15/33/21 21/31/21 28/39/21 22/41/21
f 20/30/22 19/32/22 26/40/22 27/38/22
f 18/14/23 17/13/23 24/35/23 25/34/23
f 31/36/24 30/42/24 36/43/24
f 23/29/25 22/28/25 29/44/25 30/42/25
f 28/39/26 27/38/26 34/45/26 35/46/26
f 26/40/27 25/34/27 32/37/27 33/47/27
f 24/35/28 23/29/28 30/42/28 31/36/28
f 22/41/29 28/39/29 35/46/29 29/48/29
f 27/38/30 26/40/30 33/47/30 34/45/30
f 29/48/31 35/46/31 36/49/31
f 34/45/32 33/47/32 36/50/32
f 32/37/33 31/36/33 36/51/33
f 30/42/34 29/44/34 36/52/34
f 35/46/35 34/45/35 36/53/35
f 33/47/36 32/37/36 36/54/36
